<?xml version="1.0" encoding="iso-8859-1"?>
<!-- Generator: Adobe Illustrator 16.0.0, SVG Export Plug-In . SVG Version: 6.00 Build 0)  -->
<!DOCTYPE svg PUBLIC "-//W3C//DTD SVG 1.1//EN" "http://www.w3.org/Graphics/SVG/1.1/DTD/svg11.dtd">
<svg version="1.1" id="Layer_1" xmlns="http://www.w3.org/2000/svg" xmlns:xlink="http://www.w3.org/1999/xlink" x="0px" y="0px"
	 width="72.8px" height="30.2px" viewBox="0 0 72.8 30.2" style="enable-background:new 0 0 72.8 30.2;" xml:space="preserve">
<path style="fill-rule:evenodd;clip-rule:evenodd;fill:#343434;" d="M54.939,11.435c0.451,0.272,0.852,0.596,1.2,0.972l0.019,0.021
	c0.341,0.372,0.635,0.797,0.882,1.273c0.154,0.297,0.208,0.627,0.167,0.943c-0.04,0.316-0.176,0.617-0.399,0.859l0,0l0,0
	l-6.896,7.441c-0.047,0.051-0.104,0.084-0.165,0.101l-4.248,1.312c-0.188,0.058-0.383-0.06-0.438-0.263
	c-0.018-0.072-0.018-0.145,0-0.211l1.217-4.582c0.018-0.068,0.051-0.132,0.099-0.183l6.892-7.435
	c0.224-0.241,0.503-0.387,0.798-0.431C54.357,11.21,54.663,11.269,54.939,11.435L54.939,11.435z M46.408,21.589
	c0.572,0.398,0.98,0.836,1.259,1.305l1.571-0.485l-0.262-1.191l-1.338,0.132l-0.055,0.005l0,0c-0.139,0.027-0.285-0.039-0.363-0.176
	l-0.48-0.844L46.408,21.589L46.408,21.589z M56.505,14.324l-6.65,7.175l0.052,0.37l6.4-6.905v0.001
	c0.112-0.121,0.18-0.271,0.2-0.425C56.516,14.469,56.515,14.396,56.505,14.324L56.505,14.324z M47.529,20.26l7.376-7.957
	c-0.101-0.071-0.203-0.138-0.309-0.202c-0.139-0.083-0.291-0.112-0.435-0.09c-0.144,0.021-0.281,0.094-0.394,0.215l-6.698,7.227
	L47.529,20.26z"/>
<path style="fill-rule:evenodd;clip-rule:evenodd;fill:#343434;" d="M13.983,23.818l0.495,0.533c0.113,0.123,0.113,0.321,0,0.443
	l-0.121,0.13c-0.08,0.086-0.189,0.114-0.297,0.076l-0.741-0.267c-0.099-0.035-0.167-0.116-0.19-0.225
	c-0.024-0.108,0.004-0.214,0.077-0.293l0.368-0.396C13.685,23.697,13.87,23.697,13.983,23.818L13.983,23.818z M26.334,14.058
	c0.094-0.113,0.255-0.122,0.359-0.021c0.105,0.102,0.113,0.275,0.02,0.387L20.544,21.8c-0.094,0.113-0.255,0.122-0.359,0.02
	c-0.104-0.101-0.113-0.274-0.019-0.387L26.334,14.058L26.334,14.058z M24.42,10.483c-0.436-0.47-1.136-0.489-1.593-0.042
	l-7.148,6.978c-0.061,0.06-0.093,0.135-0.095,0.224c-0.002,0.089,0.026,0.166,0.084,0.229l4.322,4.663
	c0.059,0.062,0.13,0.094,0.212,0.092c0.083-0.002,0.153-0.037,0.208-0.103l6.467-7.711c0.414-0.494,0.396-1.249-0.04-1.719
	L24.42,10.483L24.42,10.483z M23.658,10.871c-0.06-0.069-0.204-0.028-0.32,0.09l-6.667,6.561c-0.118,0.116-0.163,0.273-0.102,0.339
	l0.658,0.706c0.062,0.066,0.203,0.025,0.32-0.09l6.645-6.539c0.117-0.115,0.162-0.271,0.102-0.34L23.658,10.871L23.658,10.871z
	 M14.435,23.105l0.704,0.759c0.066,0.071,0.154,0.12,0.242,0.089c1.21-0.422,2.441-0.529,3.682-0.506
	c0.114,0.002,0.202-0.093,0.238-0.209c0.037-0.116,0.011-0.236-0.07-0.323l-3.916-4.226c-0.081-0.086-0.192-0.114-0.299-0.075
	c-0.107,0.04-0.19,0.135-0.194,0.257c-0.044,1.324-0.029,2.648-0.469,3.973C14.321,22.939,14.369,23.035,14.435,23.105z"/>
</svg>
