<?xml version="1.0" encoding="iso-8859-1"?>
<!-- Generator: Adobe Illustrator 16.0.0, SVG Export Plug-In . SVG Version: 6.00 Build 0)  -->
<!DOCTYPE svg PUBLIC "-//W3C//DTD SVG 1.1//EN" "http://www.w3.org/Graphics/SVG/1.1/DTD/svg11.dtd">
<svg version="1.1" id="Layer_1" xmlns="http://www.w3.org/2000/svg" xmlns:xlink="http://www.w3.org/1999/xlink" x="0px" y="0px"
	 width="79px" height="60.166px" viewBox="0 0 79 60.166" style="enable-background:new 0 0 79 60.166;" xml:space="preserve">
<g style="enable-background:new    ;">
	<path d="M6.034,28.27v-0.668c0.925-0.104,1.62-0.453,2.083-1.045c0.463-0.593,1.256-2.213,2.38-4.861l7.5-17.667h0.717
		l8.971,20.409c0.598,1.353,1.074,2.188,1.434,2.508c0.357,0.32,0.957,0.539,1.801,0.656v0.668h-9.154v-0.668
		c1.053-0.095,1.73-0.207,2.035-0.342c0.305-0.135,0.457-0.464,0.457-0.988c0-0.174-0.06-0.483-0.176-0.928
		c-0.117-0.443-0.281-0.908-0.492-1.398l-1.441-3.463H12.66c-0.936,2.354-1.494,3.793-1.676,4.312
		c-0.182,0.521-0.272,0.931-0.272,1.233c0,0.605,0.247,1.025,0.739,1.26c0.303,0.14,0.877,0.245,1.719,0.314v0.668H6.034z
		 M21.537,19.023l-4.125-9.914l-4.145,9.914H21.537z"/>
</g>
</svg>
